<svg height="512" viewBox="0 0 128 128" width="512" xmlns="http://www.w3.org/2000/svg"><g><path d="m121.25 9.292h-114.5a6.757 6.757 0 0 0 -6.75 6.75v64.916a6.757 6.757 0 0 0 6.75 6.75h41.333v14.084h-10.25a8.76 8.76 0 0 0 -8.75 8.75v6.416a1.75 1.75 0 0 0 1.75 1.75h66.334a1.75 1.75 0 0 0 1.75-1.75v-6.416a8.76 8.76 0 0 0 -8.75-8.75h-10.25v-14.084h41.333a6.757 6.757 0 0 0 6.75-6.75v-64.916a6.757 6.757 0 0 0 -6.75-6.75zm-25.833 101.25v4.666h-62.834v-4.666a5.255 5.255 0 0 1 5.25-5.25h52.334a5.255 5.255 0 0 1 5.25 5.25zm-19-8.75h-24.834v-14.084h24.834zm48.083-20.834a3.254 3.254 0 0 1 -3.25 3.25h-114.5a3.254 3.254 0 0 1 -3.25-3.25v-64.916a3.254 3.254 0 0 1 3.25-3.25h114.5a3.254 3.254 0 0 1 3.25 3.25z"/><path d="m116.25 19.292h-104.5a1.751 1.751 0 0 0 -1.75 1.75v54.916a1.75 1.75 0 0 0 1.75 1.75h104.5a1.75 1.75 0 0 0 1.75-1.75v-54.916a1.751 1.751 0 0 0 -1.75-1.75zm-1.75 54.916h-101v-51.416h101z"/></g></svg>